<svg id="Layer_1" data-name="Layer 1" xmlns="http://www.w3.org/2000/svg" viewBox="0 0 432.7 285"><defs><style>.cls-1{fill:#ca1b17;}</style></defs><path d="M168,75v41h6V40H448l-.2,136.7-.3,136.8-136.7.3L174,314V237h-6v82H454V34H168Z" transform="translate(-21.3 -34)"/><path d="M93.6,125.8c-.5.9-23.6,66.1-23.6,66.8,0,.2,2.1.4,4.8.4h4.8l11.7-33.3c6.4-18.3,11.7-33.6,11.7-34C103,124.7,94.2,124.8,93.6,125.8Z" transform="translate(-21.3 -34)"/><path d="M114.8,132.7l-3.8.4v52.8l3.5.7a87.41,87.41,0,0,0,13.3.2c8-.3,10.5-.8,14.2-2.8,5.4-3,8-7.6,8-14.3,0-5.7-1.8-9.6-6.1-13-3.1-2.4-3.1-2.6-1.5-4.8a14.08,14.08,0,0,0,1.6-6.7c0-3.6-.6-5-3.3-7.7C135.7,132.5,128.8,131.3,114.8,132.7Zm17.7,9.3c2,1.7,1.9,6.9-.2,9.2-1.1,1.2-3,1.8-6,1.8H122V139.7l4.5.5C129,140.5,131.7,141.3,132.5,142Zm5.4,22.4c2.9,2.7,2.8,8-.3,11.1-2.5,2.5-7.4,3.9-12.2,3.3l-2.9-.3-.3-8.4-.3-8.3,7,.4C133.9,162.4,136.4,163.1,137.9,164.4Z" transform="translate(-21.3 -34)"/><path d="M273.8,132.7l-3.8.4v52.8l3.5.7a87.41,87.41,0,0,0,13.3.2c15.2-.6,21.1-4.7,22-15.3.6-6.8-.9-10.6-5.6-14.5-3.3-2.7-3.4-2.9-1.8-5.1a14.08,14.08,0,0,0,1.6-6.7c0-3.6-.6-5-3.3-7.7C294.7,132.5,287.8,131.3,273.8,132.7Zm17.7,9.3c2,1.7,1.9,6.9-.2,9.2-1.1,1.2-3,1.8-6,1.8H281V139.7l4.5.5C288,140.5,290.7,141.3,291.5,142Zm5.4,22.4c2.9,2.7,2.8,8-.3,11.1-2.5,2.5-7.4,3.9-12.2,3.3l-2.9-.3-.3-8.4-.3-8.3,7,.4C292.9,162.4,295.4,163.1,296.9,164.4Z" transform="translate(-21.3 -34)"/><path d="M327.7,133.4c-4.8,1.8-7.6,4.2-9.3,8.3-3.1,7.3-.7,15.3,5.7,19.2a33.26,33.26,0,0,0,9.8,3.1c8.3,1.4,11.1,3.2,11.1,6.9,0,4.1-3.1,6.4-9.4,6.9-6.7.5-11.7-1.1-15.6-5l-3-3v13.3l3.8,1.7c2.6,1.2,6.5,1.7,13.3,1.7,8.8,0,9.9-.2,13.7-2.7,5.7-3.8,7.5-7.7,7-14.9-.6-8.8-4-11.7-17-14.4-8.2-1.8-10.8-3.6-10.8-7.7,0-2.4.6-3.2,3.7-4.5s4.6-1.3,9-.4a25.47,25.47,0,0,1,7.7,3.2l2.6,2v-12l-5.2-1.6C338.5,131.7,332.8,131.6,327.7,133.4Z" transform="translate(-21.3 -34)"/><path d="M30.3,159.2c-5.1,14.4-9.1,26.3-9,26.4s2.5.4,5.3.8l5.1.6,1.7-6,1.7-6H53.9l1.9,5.2,2,5.3,5.7.3c5.2.3,5.7.1,5-1.5-.4-1-4.7-12.8-9.5-26.3l-8.8-24.5-5.4-.3-5.3-.2Zm17.2-4.1a78.51,78.51,0,0,1,2.5,9c0,.5-2.5.9-5.5.9s-5.5-.3-5.5-.6c0-1.2,5.1-17.4,5.5-17.4C44.7,147,46.1,150.6,47.5,155.1Z" transform="translate(-21.3 -34)"/><path d="M187,159.5V186h6.4c3.4,0,9.1.3,12.5.6l6.1.7V177H198V133H187Z" transform="translate(-21.3 -34)"/><path d="M224.1,159.1c-5.1,14.3-9.1,26.2-8.9,26.4s2.5.5,5.2.7l4.8.3,1.7-5.5,1.7-5.5,9.6-.3,9.7-.3,1.7,5.5,1.7,5.4,5.6.4c3.1.2,5.7.4,5.8.3s-4.1-12.1-9.5-26.8L243.6,133H233.3Zm19.3,3.1.6,2.8H232.2l2.4-7.8c1.4-4.2,2.7-8.4,3-9.2C238.2,146.6,241.6,155.2,243.4,162.2Z" transform="translate(-21.3 -34)"/><path d="M120,218.9c0,7.4.3,9.1,1.5,9.1s1.5-1.3,1.5-5.8v-5.7l2.9,4.5a32.8,32.8,0,0,0,4.4,5.9c1.6,1.2,1.7.6,1.7-7.8,0-5.4-.4-9.1-1-9.1s-1,2.5-1,5.5-.3,5.5-.7,5.5-2.1-2-3.6-4.4C120.5,208.4,120,208.6,120,218.9Z" transform="translate(-21.3 -34)"/><path d="M141.5,211.2c-.2.7-1.6,4.6-3,8.6s-2.4,7.6-2.1,7.9c.8.8,2.6-.7,2.6-2.3,0-1,1.2-1.4,4-1.4s4,.4,4,1.4,2,2.6,3.5,2.6c.3,0-1-4.1-2.8-9C144.8,210.7,142.6,208,141.5,211.2Zm3.4,8.5c.1.7-.8,1.3-1.9,1.3-2.3,0-2.3,0-.9-3.7,1-2.6,1.2-2.7,1.9-.8A10.51,10.51,0,0,1,144.9,219.7Z" transform="translate(-21.3 -34)"/><path d="M154,219v9h4.1c4.3,0,5.2-2.2,1.1-2.8-2-.3-2.2-.9-2.2-7.8,0-5.9-.3-7.4-1.5-7.4S154,211.7,154,219Z" transform="translate(-21.3 -34)"/><path d="M164,210.4a32.94,32.94,0,0,0,2.5,5.6,22.87,22.87,0,0,1,2.5,8.5c0,2.4.4,3.5,1.5,3.5s1.5-1,1.5-3c0-1.7,1.4-5.7,3-9s2.7-6,2.3-6c-1.6,0-3.1,1.6-4.8,4.9l-1.7,3.4-2.1-3.8C166.8,211.1,164,208.7,164,210.4Z" transform="translate(-21.3 -34)"/><path d="M180,211.5c0,.8.9,1.5,2,1.5,1.8,0,2,.7,2,7.5,0,6,.3,7.5,1.5,7.5s1.5-1.5,1.5-7.4c0-6.9.2-7.5,2.2-7.8a3.58,3.58,0,0,0,2.6-1.6c.3-.9-1.3-1.2-5.7-1.2C181.3,210,180,210.3,180,211.5Z" transform="translate(-21.3 -34)"/><path d="M195.6,213.1a67,67,0,0,0-.6,9c0,5.2.2,5.9,2,5.9s2-.7,2-9c0-7-.3-9-1.4-9C196.9,210,196,211.4,195.6,213.1Z" transform="translate(-21.3 -34)"/><path d="M207.4,211.4c-3.1,1.4-4.4,3.8-4.4,8.6,0,5.3,5.2,8.8,10.9,7.3,3.6-.9,2.5-2.9-1.4-2.5-4.6.5-6.5-1.2-6.5-5.8s1.9-6.3,6.5-5.8c3.6.4,5-1.4,1.9-2.6C212.2,209.7,210.9,209.9,207.4,211.4Z" transform="translate(-21.3 -34)"/><path d="M236,219v9h4c2.9,0,4-.4,4-1.5,0-.9-.9-1.5-2.5-1.5-2.4,0-2.5-.2-2.5-7.5,0-6-.3-7.5-1.5-7.5S236,211.7,236,219Z" transform="translate(-21.3 -34)"/><path class="cls-1" d="M255,211.5c0,.8.9,1.5,2,1.5,1.8,0,2,.7,2,7.5s.2,7.5,2,7.5,2-.7,2-7.4c0-6.5.2-7.4,2-7.9,4.3-1.1,1.9-2.7-4-2.7C256.3,210,255,210.3,255,211.5Z" transform="translate(-21.3 -34)"/><path class="cls-1" d="M270,219v9h5c3.8,0,5-.4,5-1.5s-1.1-1.5-3.5-1.5c-3.1,0-3.5-.3-3.5-2.5,0-2,.5-2.5,2.5-2.5,1.6,0,2.5-.6,2.5-1.5s-1-1.5-2.6-1.5c-4,0-2.8-3.4,1.4-3.8,2-.2,3.2-.9,3.2-1.8s-1.3-1.4-5-1.4h-5Z" transform="translate(-21.3 -34)"/><path class="cls-1" d="M286.2,211.6a4.1,4.1,0,0,0-2,4.2c.2,2.2,1.1,3,4.6,4.1,3.1.9,4.2,1.8,4,3s-1.5,1.6-4.6,1.6c-4.9,0-5.7,2-1.2,3,3.8.8,6.7-.1,8.1-2.6,1.7-3.2.2-5.8-4.1-6.9-6.3-1.7-5.9-6,.5-4.8,3.2.7,3.4-1.7.3-2.6S288.7,209.8,286.2,211.6Z" transform="translate(-21.3 -34)"/><path class="cls-1" d="M298.2,211.2a3.58,3.58,0,0,0,2.6,1.6c2,.3,2.2.9,2.2,7.8,0,5.9.3,7.4,1.5,7.4s1.5-1.5,1.5-7.5c0-6.8.2-7.5,2-7.5,1.1,0,2-.7,2-1.5,0-1.2-1.3-1.5-6.1-1.5C299.5,210,297.9,210.3,298.2,211.2Z" transform="translate(-21.3 -34)"/><path class="cls-1" d="M314,219c0,7.3.3,9,1.5,9s1.5-1.7,1.5-9-.3-9-1.5-9S314,211.7,314,219Z" transform="translate(-21.3 -34)"/><path class="cls-1" d="M323,219c0,7.2.3,9,1.5,9,1,0,1.5-1.5,1.7-5.7l.3-5.7,3.8,5.7c2,3.1,4.2,5.7,4.7,5.7s1-3.7,1-9c0-7.2-.3-9-1.5-9-1,0-1.5,1.5-1.7,5.7l-.3,5.8-3.3-5.2C324,208.1,323,208.5,323,219Z" transform="translate(-21.3 -34)"/><path class="cls-1" d="M345,211.8c-4.8,2.3-6.3,7.9-3.3,12,4.6,6.2,13.3,4.7,13.3-2.3,0-3.2-.2-3.5-3-3.5-1.6,0-3,.4-3,1s.7,1,1.5,1,1.5.9,1.5,2.5c0,2.1-.5,2.5-2.9,2.5-5.5,0-7.8-5.1-4.5-9.9,1.3-1.9,2.4-2.2,5.5-1.9,4.2.4,5-.5,2-2.2C349.5,209.7,349.1,209.7,345,211.8Z" transform="translate(-21.3 -34)"/><path d="M104.5,219.1c-1.5,4.4-2.5,8.3-2.2,8.6.9.8,2.7-.7,2.7-2.3,0-2.4,6.5-1.8,8.3.8,2.9,4.3,2.9.8.2-7.2C109.7,208.2,108.1,208.2,104.5,219.1Zm6-.4c.5,1.9.2,2.3-1.4,2.3-2.3,0-2.4-.3-1.5-3.8C108.3,214.6,109.4,215.2,110.5,218.7Z" transform="translate(-21.3 -34)"/><path d="M223.5,212.2c-.2.7-1.6,4.4-3,8.2-2.6,7.1-2.5,9.9.2,5.8,2.1-3,7.9-3.1,8.8-.2a2.65,2.65,0,0,0,2.1,2c1.7,0,1.6-.6-2.1-10.5C227.3,211.8,224.5,209.3,223.5,212.2Zm3.5,7a1.79,1.79,0,0,1-2,1.8q-2,0-1.5-1.5c1.6-5.1,1.6-5,2.5-3.5A6.33,6.33,0,0,1,227,219.2Z" transform="translate(-21.3 -34)"/></svg>